# xmcd CD Database Entry
#
# Track frame offsets:
# 150
# 195248
# 205137
# 215171
# 219831
# 227191
# 234839
# 236731
# 237543
# 244686
# 252675
# 259032
# 268799
# 271669
# 277290
# 286475
# 287843
# 297289
# 304970
# 313793
# 320315
# 326808
# 333006
# 341385
# 347341
# 354951
# 357914
# 359368
#
# Disc length: 4798 seconds
#
# Revision: 1
# Processed by: cddbd v1.4PL0 Copyright (c) Steve Scherf et al.
# Submitted via: tcd 2.0b
#
DISCID=c712bc1c
DTITLE=Desconhecido - Desconhecido
DYEAR=1900
DGENRE=
TTITLE0=Trilha 1
TTITLE1=Trilha 2
TTITLE2=Trilha 3
TTITLE3=Trilha 4
TTITLE4=Trilha 5
TTITLE5=Trilha 6
TTITLE6=Trilha 7
TTITLE7=Trilha 8
TTITLE8=Trilha 9
TTITLE9=Trilha 10
TTITLE10=Trilha 11
TTITLE11=Trilha 12
TTITLE12=Trilha 13
TTITLE13=Trilha 14
TTITLE14=Trilha 15
TTITLE15=Trilha 16
TTITLE16=Trilha 17
TTITLE17=Trilha 18
TTITLE18=Trilha 19
TTITLE19=Trilha 20
TTITLE20=Trilha 21
TTITLE21=Trilha 22
TTITLE22=Trilha 23
TTITLE23=Trilha 24
TTITLE24=Trilha 25
TTITLE25=Trilha 26
TTITLE26=Trilha 27
TTITLE27=Trilha 28
EXTD=
EXTT0=
EXTT1=
EXTT2=
EXTT3=
EXTT4=
EXTT5=
EXTT6=
EXTT7=
EXTT8=
EXTT9=
EXTT10=
EXTT11=
EXTT12=
EXTT13=
EXTT14=
EXTT15=
EXTT16=
EXTT17=
EXTT18=
EXTT19=
EXTT20=
EXTT21=
EXTT22=
EXTT23=
EXTT24=
EXTT25=
EXTT26=
EXTT27=
PLAYORDER=
